# xmcd
#
# Track frame offsets:
#	150
#	10083
#	22384
#	34485
#	57527
#	69105
#	91706
#	109357
#	118008
#	133159
#	160656
#	173940
#
# Disc length: 2459 seconds
#
# Revision: 1
# Processed by: cddbd v1.5.2PL0 Copyright (c) Steve Scherf et al.
# Submitted via: audiograbber 1.83.01
#
DISCID=a409990c
DTITLE=Tommy Therrien - Akoostik
DYEAR=2003
DGENRE=Folk-Blues
TTITLE0=Short and Sweet
TTITLE1=Bluezin' Your Streets
TTITLE2=Song in D
TTITLE3=Croisade
TTITLE4=Dancin' with the Sun
TTITLE5=Prélude pour un nouveau jour
TTITLE6=Jade
TTITLE7=At the Turn Style
TTITLE8=Reachin' out for D Light
TTITLE9=Prière
TTITLE10=Et quand la pluie remonte au ciel
TTITLE11=Ballade pour piano
EXTD=tommytherrien@yahoo.ca\nfreedb submitted by BigueNique@yahoo.ca\nhttp://ra
EXTD=dio.fiatlux.tk
EXTT0=
EXTT1=
EXTT2=
EXTT3=
EXTT4=
EXTT5=
EXTT6=
EXTT7=
EXTT8=
EXTT9=
EXTT10=
EXTT11=
PLAYORDER=
